<svg width="130" height="32" viewBox="0 0 130 32" fill="none" xmlns="http://www.w3.org/2000/svg">
<g clip-path="url(#clip0_1781_24536)">
<path d="M16.4257 30.4639C15.9003 30.4639 15.4227 30.4639 14.8974 30.3683C7.49437 29.5564 1.76303 22.9176 1.95407 15.6579C2.09736 11.9803 3.86452 8.58923 7.06452 5.96236C9.45258 4.05191 12.7003 2.47579 15.7093 1.90266C16.3302 1.80714 17.7153 1.52057 19.3869 1.52057C22.778 1.52057 25.5481 2.52356 27.6974 4.52953C32.569 8.87579 31.4705 15.8489 31.2317 17.234C29.8466 23.6818 24.0197 30.4639 16.4257 30.4639Z" fill="white"/>
<path d="M19.3069 2.43318C21.5995 2.43318 24.6084 2.95855 27.0442 5.20333C31.6771 9.40631 30.5308 16.1406 30.292 17.0959C29.098 22.9227 23.7487 29.6571 16.3457 29.6571C15.9159 29.6571 15.3905 29.6571 14.9607 29.5615C8.22633 28.7974 2.54275 22.6839 2.78155 15.7586C3.02036 7.83019 10.7577 3.72273 15.7248 2.76751C16.4413 2.67199 17.7308 2.43318 19.3069 2.43318ZM19.3069 0.666016C17.5398 0.666016 16.0592 0.952581 15.486 1.0481C13.9577 1.33467 10.0413 2.38542 6.4114 5.25109C3.02036 8.02124 1.15767 11.6511 1.01439 15.663C0.871105 23.3526 6.93678 30.278 14.8174 31.2332C15.3427 31.3287 15.9159 31.3287 16.4413 31.3287C24.5129 31.3287 30.7696 24.26 32.1069 17.3824C32.3935 15.9018 33.492 8.59437 28.3338 3.91377C25.9457 1.76452 22.7935 0.666016 19.3069 0.666016Z" fill="black"/>
<path d="M22.9214 17.0503C22.2528 20.5846 18.1453 22.6861 14.8498 21.8264C12.9393 21.3966 10.9334 19.7727 10.5035 17.3846C9.97815 14.6145 11.6976 12.2264 13.4647 11.0324C13.7035 10.8891 16.8558 8.97867 19.9602 10.6503C21.1543 11.2712 21.9662 12.2742 22.4916 13.4205C23.017 14.519 23.1602 15.8085 22.9214 17.0503Z" fill="#F4C606"/>
<path d="M22.4937 13.3656C21.9683 12.1716 21.0131 11.3119 19.9624 10.5955C19.1504 10.1656 18.2429 9.97458 17.5265 9.92682C18.8638 11.1208 19.6758 12.888 19.7713 14.7029C19.9146 18.1895 16.6668 21.1029 13.3713 21.1029C13.8967 21.3895 14.4698 21.6283 14.9952 21.7716C18.2907 22.5835 22.3982 20.5298 23.0668 16.9955C23.1624 15.8014 23.0191 14.5119 22.4937 13.3656Z" fill="#F9BA2D"/>
<path d="M16.4314 22.4483C15.906 22.4483 15.3329 22.3528 14.8075 22.2095C12.8015 21.6841 10.6045 20.0603 10.0314 17.4334C9.41048 14.4722 11.2254 11.9886 13.1836 10.6513C13.5657 10.4125 16.8135 8.40653 20.109 10.2215C21.3508 10.8901 22.2582 11.9409 22.8791 13.1827C23.5 14.4245 23.6433 15.7618 23.4045 17.1946C23.1179 18.914 22.0194 20.3468 20.4433 21.3498C19.1538 22.0662 17.7687 22.4483 16.4314 22.4483ZM17.1956 10.317C15.2851 10.317 13.709 11.32 13.6612 11.32C11.8941 12.514 10.3657 14.711 10.8911 17.2424C11.3209 19.4871 13.2791 20.92 14.9508 21.3976C16.5747 21.7797 18.4373 21.4931 19.8702 20.5856C21.2553 19.7737 22.1627 18.4364 22.4015 17.0513C22.6403 15.8573 22.497 14.6633 21.9717 13.5647C21.4463 12.4662 20.6344 11.6543 19.5836 11.0334C18.8194 10.508 17.912 10.317 17.1956 10.317Z" fill="black"/>
<path d="M15.2333 12.7582C15.2333 12.7582 13.8482 13.0448 13.3228 14.6209C12.7975 16.2448 14.6602 15.1463 15.3288 14.5254C16.093 13.8089 17.7169 12.4716 15.2333 12.7582Z" fill="#F9E17A"/>
<path d="M37.923 17.6304L40.3111 17.4871C40.3111 19.111 41.3141 20.2573 42.8902 20.2573C43.8932 20.2573 44.9439 19.8274 44.9439 18.7767C44.9439 16.3886 38.5439 17.2483 38.5439 13.2364C38.5439 11.1827 40.3111 9.74982 42.6036 9.74982C44.7529 9.74982 46.7589 10.9439 46.9499 13.0453L44.6574 13.1886C44.5141 12.1856 43.5589 11.6603 42.6514 11.6603C41.7439 11.6603 40.8842 12.1856 40.8842 12.9976C40.8842 15.2901 47.2842 14.717 47.2842 18.5379C47.2842 20.5916 45.3738 22.1677 42.6992 22.1677C40.0723 22.1677 37.923 20.3528 37.923 17.6304Z" fill="black"/>
<path d="M48.527 17.6261C48.527 14.9515 50.2942 13.0411 52.8733 13.0411C55.1181 13.0411 56.7897 14.4262 57.0285 16.5276L54.6405 16.7665C54.4017 15.6679 53.8285 15.047 52.8733 15.047C51.6793 15.047 51.0106 16.05 51.0106 17.6261C51.0106 19.1545 51.6793 20.1575 52.8733 20.1575C53.8285 20.1575 54.4017 19.5366 54.6405 18.5336L57.0763 18.6769C56.8375 20.6829 55.2136 22.0679 52.9211 22.0679C50.2942 22.1635 48.527 20.3485 48.527 17.6261Z" fill="black"/>
<path d="M58.7458 13.3848H61.0383V15.152C61.4204 13.958 62.0413 13.3848 62.901 13.3848H64.4294V15.2953H63.0921C61.5637 15.2953 61.0383 16.0595 61.0383 18.3042V21.8386H58.7458V13.3848Z" fill="black"/>
<path d="M65.1003 19.5396C65.1003 18.0112 66.3421 17.1037 68.7301 16.8649C70.4973 16.6261 70.7839 16.4828 70.7361 15.8619C70.7361 15.3366 70.3063 15.05 69.3988 15.05C68.3003 15.05 67.5361 15.4799 67.5361 16.2918L65.2913 16.1485C65.2913 14.3813 66.9152 13.1873 69.1122 13.1873C71.4048 13.1873 72.9331 14.4291 72.9331 16.4351V21.9754H70.6406V20.5903C70.2107 21.6888 69.16 22.3097 67.8704 22.3097C66.1988 22.1664 65.1003 21.0679 65.1003 19.5396ZM68.4913 20.256C69.7331 20.256 70.5451 19.1575 70.6406 17.5813C70.2585 17.9634 69.5421 18.25 68.7301 18.3933C67.7271 18.5366 67.2495 18.8231 67.2495 19.3963C67.2973 19.9694 67.8227 20.256 68.4913 20.256Z" fill="black"/>
<path d="M84.2028 15.0535C83.1043 15.0535 82.4356 16.1521 82.4356 17.7282V21.7879H80.1431V16.8685C80.1431 15.6267 79.7133 15.0058 78.8058 15.0058C77.7073 15.0058 77.0386 16.1043 77.0386 17.6804V21.7401H74.7461V13.3341H77.0386V14.7192C77.564 13.6207 78.5192 12.9998 79.6177 12.9998C80.8595 12.9998 81.6715 13.6685 82.0536 14.9103C82.5789 13.7162 83.6774 12.9998 85.0148 12.9998C86.7819 12.9998 87.6894 14.3371 87.6894 16.6774V21.7879H85.3968V16.8685C85.5401 15.6744 85.1103 15.0535 84.2028 15.0535Z" fill="black"/>
<path d="M92.1793 20.3535V21.8819H89.8867V9.98932H92.1793V14.9087C92.7046 13.7147 93.7076 13.046 95.0449 13.046C97.1942 13.046 98.7225 14.9087 98.7225 17.4878C98.7225 20.0669 97.1942 21.9296 95.0449 21.9296C93.6598 22.1684 92.7046 21.4998 92.1793 20.3535ZM94.233 20.258C95.4748 20.258 96.2867 19.255 96.2867 17.6789C96.2867 16.1505 95.4748 15.0998 94.233 15.0998C92.9912 15.0998 92.1793 16.1028 92.1793 17.6789C92.1793 19.1595 92.9912 20.258 94.233 20.258Z" fill="black"/>
<path d="M100.297 9.80182H102.59V21.8376H100.297V9.80182Z" fill="black"/>
<path d="M104.215 17.6291C104.215 15.05 105.982 13.1873 108.418 13.1873C110.854 13.1873 112.621 15.05 112.621 17.7724V18.3933H106.603C106.603 19.5873 107.415 20.3037 108.657 20.3037C109.469 20.3037 110.137 19.9216 110.424 19.3007L112.716 19.444C112.478 21.1634 110.949 22.2142 108.8 22.2142C106.078 22.1664 104.215 20.3515 104.215 17.6291ZM110.328 16.7216C110.328 15.7187 109.564 15.0978 108.466 15.0978C107.367 15.0978 106.555 15.7664 106.555 16.7216H110.328Z" fill="black"/>
<path d="M114.387 9.93732H116.679V21.8299H114.387V9.93732Z" fill="black"/>
<path d="M118.975 9.93732H123.178C126.665 9.93732 129.005 12.3731 129.005 15.8597C129.005 19.3463 126.569 21.7821 123.178 21.7821H118.975V9.93732ZM123.274 19.9672C125.328 19.9672 126.808 18.3433 126.808 15.9552C126.808 13.5672 125.328 11.9433 123.274 11.9433H121.363V19.9194H123.274V19.9672Z" fill="black"/>
</g>
<defs>
<clipPath id="clip0_1781_24536">
<rect width="128.955" height="32" fill="white" transform="translate(0.522156)"/>
</clipPath>
</defs>
</svg>
