<svg xmlns="http://www.w3.org/2000/svg" width="20" height="20" viewBox="0 0 20 20" fill="none">
<path d="M15.2763 6.07812H8.57293C8.36151 6.07867 8.15227 6.1209 7.95719 6.20238C7.7621 6.28387 7.58499 6.40302 7.436 6.55302C7.28701 6.70302 7.16905 6.88093 7.08888 7.07656C7.0087 7.27219 6.96789 7.48171 6.96876 7.69313V16.0998C6.96876 16.9915 7.6871 17.7148 8.57293 17.7148H15.2763C15.4877 17.7142 15.6969 17.672 15.892 17.5905C16.0871 17.509 16.2642 17.3899 16.4132 17.2399C16.5622 17.0899 16.6801 16.912 16.7603 16.7164C16.8405 16.5207 16.8813 16.3112 16.8804 16.0998V7.69313C16.8804 6.80146 16.1621 6.07812 15.2763 6.07812Z" stroke="#1E1E1E" stroke-width="1.5" stroke-linecap="round" stroke-linejoin="round"/>
<path d="M13.0367 6.07687V3.91188C13.0367 3.48354 12.8675 3.07271 12.5667 2.77021C12.4181 2.62045 12.2415 2.50154 12.0468 2.4203C11.8522 2.33907 11.6434 2.29712 11.4325 2.29688H4.72917C4.30417 2.29688 3.89583 2.46688 3.59583 2.77021C3.29477 3.07398 3.12559 3.48419 3.125 3.91188V12.3185C3.125 12.7469 3.29417 13.1577 3.595 13.4602C3.89583 13.7627 4.30333 13.9335 4.72917 13.9335H6.96667" stroke="#1E1E1E" stroke-width="1.5" stroke-linecap="round" stroke-linejoin="round"/>
</svg>