<svg width="24" height="25" viewBox="0 0 24 25" fill="none" xmlns="http://www.w3.org/2000/svg">
<g id="eva:arrow-up-fill">
<path id="Vector" d="M7.53582 16.2497L7.53582 7.82974C7.53534 7.49733 7.629 7.17158 7.80598 6.89019C7.98295 6.6088 8.23599 6.38328 8.53582 6.23974C8.89156 6.07171 9.28735 6.00699 9.67809 6.05296C10.0688 6.09893 10.4388 6.25374 10.7458 6.49974L15.8458 10.7097C16.0364 10.875 16.1893 11.0792 16.2941 11.3087C16.3989 11.5382 16.4531 11.7875 16.4531 12.0397C16.4531 12.292 16.3989 12.5413 16.2941 12.7708C16.1893 13.0003 16.0364 13.2045 15.8458 13.3697L10.7458 17.5797C10.4388 17.8257 10.0688 17.9806 9.67809 18.0265C9.28735 18.0725 8.89156 18.0078 8.53582 17.8397C8.23599 17.6962 7.98295 17.4707 7.80598 17.1893C7.629 16.9079 7.53534 16.5822 7.53582 16.2497Z" fill="#151515"/>
</g>
</svg>
