<svg width="248" height="32" viewBox="0 0 248 32" fill="none" xmlns="http://www.w3.org/2000/svg">
<g clip-path="url(#clip0_1781_24469)">
<path d="M75.4259 30.4639C74.9005 30.4639 74.4229 30.4639 73.8975 30.3683C66.4945 29.5564 60.7632 22.9176 60.9542 15.6579C61.0975 11.9803 62.8647 8.58923 66.0647 5.96236C68.4527 4.05191 71.7005 2.47579 74.7095 1.90266C75.3304 1.80714 76.7154 1.52057 78.3871 1.52057C81.7781 1.52057 84.5483 2.52356 86.6975 4.52953C91.5692 8.87579 90.4706 15.8489 90.2318 17.234C88.8468 23.6818 83.0199 30.4639 75.4259 30.4639Z" fill="white"/>
<path d="M78.3071 2.43318C80.5996 2.43318 83.6086 2.95855 86.0444 5.20333C90.6772 9.40631 89.531 16.1406 89.2922 17.0959C88.0981 22.9227 82.7489 29.6571 75.3459 29.6571C74.916 29.6571 74.3907 29.6571 73.9608 29.5615C67.2265 28.7974 61.5429 22.6839 61.7817 15.7586C62.0205 7.83019 69.7578 3.72273 74.725 2.76751C75.4414 2.67199 76.731 2.43318 78.3071 2.43318ZM78.3071 0.666016C76.5399 0.666016 75.0593 0.952581 74.4862 1.0481C72.9578 1.33467 69.0414 2.38542 65.4116 5.25109C62.0205 8.02124 60.1578 11.6511 60.0146 15.663C59.8713 23.3526 65.9369 30.278 73.8175 31.2332C74.3429 31.3287 74.916 31.3287 75.4414 31.3287C83.5131 31.3287 89.7698 24.26 91.1071 17.3824C91.3937 15.9018 92.4922 8.59437 87.334 3.91377C84.9459 1.76452 81.7937 0.666016 78.3071 0.666016Z" fill="black"/>
<path d="M81.9216 17.0503C81.2529 20.5846 77.1455 22.6861 73.85 21.8264C71.9395 21.3966 69.9335 19.7727 69.5037 17.3846C68.9783 14.6145 70.6977 12.2264 72.4649 11.0324C72.7037 10.8891 75.8559 8.97867 78.9604 10.6503C80.1544 11.2712 80.9664 12.2742 81.4917 13.4205C82.0171 14.519 82.1604 15.8085 81.9216 17.0503Z" fill="#F4C606"/>
<path d="M81.4938 13.3656C80.9685 12.1716 80.0132 11.3119 78.9625 10.5955C78.1506 10.1656 77.2431 9.97458 76.5267 9.92682C77.864 11.1208 78.6759 12.888 78.7715 14.7029C78.9147 18.1895 75.667 21.1029 72.3715 21.1029C72.8968 21.3895 73.47 21.6283 73.9953 21.7716C77.2909 22.5835 81.3983 20.5298 82.067 16.9955C82.1625 15.8014 82.0192 14.5119 81.4938 13.3656Z" fill="#F9BA2D"/>
<path d="M75.4315 22.4483C74.9062 22.4483 74.333 22.3528 73.8077 22.2095C71.8017 21.6841 69.6047 20.0603 69.0315 17.4334C68.4106 14.4722 70.2256 11.9886 72.1838 10.6513C72.5659 10.4125 75.8136 8.40653 79.1091 10.2215C80.3509 10.8901 81.2584 11.9409 81.8793 13.1827C82.5002 14.4245 82.6435 15.7618 82.4047 17.1946C82.1181 18.914 81.0196 20.3468 79.4435 21.3498C78.1539 22.0662 76.7688 22.4483 75.4315 22.4483ZM76.1957 10.317C74.2853 10.317 72.7091 11.32 72.6614 11.32C70.8942 12.514 69.3659 14.711 69.8912 17.2424C70.3211 19.4871 72.2793 20.92 73.9509 21.3976C75.5748 21.7797 77.4375 21.4931 78.8703 20.5856C80.2554 19.7737 81.1629 18.4364 81.4017 17.0513C81.6405 15.8573 81.4972 14.6633 80.9718 13.5647C80.4465 12.4662 79.6345 11.6543 78.5838 11.0334C77.8196 10.508 76.9121 10.317 76.1957 10.317Z" fill="black"/>
<path d="M74.2334 12.7582C74.2334 12.7582 72.8484 13.0448 72.323 14.6209C71.7976 16.2448 73.6603 15.1463 74.329 14.5254C75.0932 13.8089 76.717 12.4716 74.2334 12.7582Z" fill="#F9E17A"/>
<path d="M96.9232 17.6304L99.3113 17.4871C99.3113 19.111 100.314 20.2573 101.89 20.2573C102.893 20.2573 103.944 19.8274 103.944 18.7767C103.944 16.3886 97.5441 17.2483 97.5441 13.2364C97.5441 11.1827 99.3113 9.74982 101.604 9.74982C103.753 9.74982 105.759 10.9439 105.95 13.0453L103.658 13.1886C103.514 12.1856 102.559 11.6603 101.652 11.6603C100.744 11.6603 99.8844 12.1856 99.8844 12.9976C99.8844 15.2901 106.284 14.717 106.284 18.5379C106.284 20.5916 104.374 22.1677 101.699 22.1677C99.0725 22.1677 96.9232 20.3528 96.9232 17.6304Z" fill="white"/>
<path d="M107.527 17.6261C107.527 14.9515 109.294 13.0411 111.874 13.0411C114.118 13.0411 115.79 14.4262 116.029 16.5276L113.641 16.7665C113.402 15.6679 112.829 15.047 111.874 15.047C110.68 15.047 110.011 16.05 110.011 17.6261C110.011 19.1545 110.68 20.1575 111.874 20.1575C112.829 20.1575 113.402 19.5366 113.641 18.5336L116.077 18.6769C115.838 20.6829 114.214 22.0679 111.921 22.0679C109.294 22.1635 107.527 20.3485 107.527 17.6261Z" fill="white"/>
<path d="M117.746 13.3848H120.039V15.152C120.421 13.958 121.042 13.3848 121.901 13.3848H123.43V15.2953H122.092C120.564 15.2953 120.039 16.0595 120.039 18.3042V21.8386H117.746V13.3848Z" fill="white"/>
<path d="M124.101 19.5396C124.101 18.0112 125.342 17.1037 127.73 16.8649C129.498 16.6261 129.784 16.4828 129.736 15.8619C129.736 15.3366 129.306 15.05 128.399 15.05C127.301 15.05 126.536 15.4799 126.536 16.2918L124.292 16.1485C124.292 14.3813 125.915 13.1873 128.112 13.1873C130.405 13.1873 131.933 14.4291 131.933 16.4351V21.9754H129.641V20.5903C129.211 21.6888 128.16 22.3097 126.871 22.3097C125.199 22.1664 124.101 21.0679 124.101 19.5396ZM127.492 20.256C128.733 20.256 129.545 19.1575 129.641 17.5813C129.259 17.9634 128.542 18.25 127.73 18.3933C126.727 18.5366 126.25 18.8231 126.25 19.3963C126.298 19.9694 126.823 20.256 127.492 20.256Z" fill="white"/>
<path d="M143.203 15.0535C142.104 15.0535 141.436 16.1521 141.436 17.7282V21.7879H139.143V16.8685C139.143 15.6267 138.713 15.0058 137.806 15.0058C136.707 15.0058 136.039 16.1043 136.039 17.6804V21.7401H133.746V13.3341H136.039V14.7192C136.564 13.6207 137.519 12.9998 138.618 12.9998C139.86 12.9998 140.672 13.6685 141.054 14.9103C141.579 13.7162 142.678 12.9998 144.015 12.9998C145.782 12.9998 146.69 14.3371 146.69 16.6774V21.7879H144.397V16.8685C144.54 15.6744 144.11 15.0535 143.203 15.0535Z" fill="white"/>
<path d="M151.179 20.3535V21.8819H148.887V9.98932H151.179V14.9087C151.705 13.7147 152.708 13.046 154.045 13.046C156.194 13.046 157.723 14.9087 157.723 17.4878C157.723 20.0669 156.194 21.9296 154.045 21.9296C152.66 22.1684 151.705 21.4998 151.179 20.3535ZM153.233 20.258C154.475 20.258 155.287 19.255 155.287 17.6789C155.287 16.1505 154.475 15.0998 153.233 15.0998C151.991 15.0998 151.179 16.1028 151.179 17.6789C151.179 19.1595 151.991 20.258 153.233 20.258Z" fill="white"/>
<path d="M159.298 9.80182H161.59V21.8376H159.298V9.80182Z" fill="white"/>
<path d="M163.215 17.6291C163.215 15.05 164.982 13.1873 167.418 13.1873C169.854 13.1873 171.621 15.05 171.621 17.7724V18.3933H165.603C165.603 19.5873 166.415 20.3037 167.657 20.3037C168.469 20.3037 169.137 19.9216 169.424 19.3007L171.716 19.444C171.478 21.1634 169.949 22.2142 167.8 22.2142C165.078 22.1664 163.215 20.3515 163.215 17.6291ZM169.328 16.7216C169.328 15.7187 168.564 15.0978 167.466 15.0978C166.367 15.0978 165.555 15.7664 165.555 16.7216H169.328Z" fill="white"/>
<path d="M173.387 9.93732H175.679V21.8299H173.387V9.93732Z" fill="white"/>
<path d="M177.976 9.93732H182.178C185.665 9.93732 188.005 12.3731 188.005 15.8597C188.005 19.3463 185.57 21.7821 182.178 21.7821H177.976V9.93732ZM182.274 19.9672C184.328 19.9672 185.808 18.3433 185.808 15.9552C185.808 13.5672 184.328 11.9433 182.274 11.9433H180.364V19.9194H182.274V19.9672Z" fill="white"/>
</g>
<defs>
<clipPath id="clip0_1781_24469">
<rect width="128.955" height="32" fill="white" transform="translate(59.5223)"/>
</clipPath>
</defs>
</svg>
