<svg xmlns="http://www.w3.org/2000/svg" width="120" height="120" viewBox="0 0 120 120" fill="none">
  <path opacity="0.2" d="M120 60C120 93.1371 93.1371 120 60 120C26.8629 120 0 93.1371 0 60C0 26.8629 26.8629 0 60 0C93.1371 0 120 26.8629 120 60ZM9 60C9 88.1665 31.8335 111 60 111C88.1665 111 111 88.1665 111 60C111 31.8335 88.1665 9 60 9C31.8335 9 9 31.8335 9 60Z" fill="#FFD000"/>
  <path d="M4.5 60C2.01472 60 -0.0175619 62.0176 0.168644 64.4959C0.941285 74.7793 4.35446 84.7177 10.1118 93.3342C16.7047 103.201 26.0754 110.892 37.039 115.433C48.0026 119.974 60.0666 121.162 71.7054 118.847C83.3443 116.532 94.0353 110.818 102.426 102.426C110.818 94.0353 116.532 83.3443 118.847 71.7054C121.162 60.0666 119.974 48.0026 115.433 37.039C110.892 26.0754 103.201 16.7047 93.3342 10.1118C84.7177 4.35446 74.7793 0.941288 64.4959 0.168645C62.0176 -0.0175616 60 2.01472 60 4.5C60 6.98528 62.0187 8.97938 64.4943 9.19838C72.9955 9.95042 81.1982 12.827 88.3341 17.5951C96.721 23.199 103.258 31.1641 107.118 40.4832C110.978 49.8022 111.988 60.0566 110.02 69.9496C108.052 79.8426 103.195 88.93 96.0624 96.0625C88.93 103.195 79.8426 108.052 69.9496 110.02C60.0566 111.988 49.8022 110.978 40.4831 107.118C31.1641 103.258 23.199 96.721 17.595 88.3341C12.827 81.1981 9.95041 72.9955 9.19838 64.4943C8.97938 62.0187 6.98528 60 4.5 60Z" fill="#FFD000"/>
</svg>