<svg viewBox="0 0 300 100" width="300" height="100" xmlns="http://www.w3.org/2000/svg">
    <path fill="#FFF"
        d="M48.303 80.4c-1.1 0-2.1 0-3.2-.2-15.5-1.7-27.5-15.6-27.1-30.8.3-7.7 4-14.8 10.7-20.3 5-4 11.8-7.3 18.1-8.5 1.3-.2 4.2-.8 7.7-.8q10.65 0 17.4 6.3c10.2 9.1 7.9 23.7 7.4 26.6-2.9 13.5-15.1 27.7-31 27.7"
        class="st0"></path>
    <path fill="#01010F"
        d="M54.303 21.6c4.8 0 11.1 1.1 16.2 5.8 9.7 8.8 7.3 22.9 6.8 24.9-2.5 12.2-13.7 26.3-29.2 26.3-.9 0-2 0-2.9-.2-14.1-1.6-26-14.4-25.5-28.9.5-16.6 16.7-25.2 27.1-27.2 1.5-.2 4.2-.7 7.5-.7m0-3.7v3.7zc-3.7 0-6.8.6-8 .8-3.2.6-11.4 2.8-19 8.8-7.1 5.8-11 13.4-11.3 21.8-.3 16.1 12.4 30.6 28.9 32.6 1.1.2 2.3.2 3.4.2 16.9 0 30-14.8 32.8-29.2.6-3.1 2.9-18.4-7.9-28.2-5-4.5-11.6-6.8-18.9-6.8"
        class="st1"></path>
    <path fill="#F4C606"
        d="M61.903 52.2c-1.4 7.4-10 11.8-16.9 10-4-.9-8.2-4.3-9.1-9.3-1.1-5.8 2.5-10.8 6.2-13.3.5-.3 7.1-4.3 13.6-.8 2.5 1.3 4.2 3.4 5.3 5.8 1.1 2.3 1.4 5 .9 7.6"
        class="st2"></path>
    <path fill="#F9BA2D"
        d="M61.003 44.5c-1.1-2.5-3.1-4.3-5.3-5.8-1.7-.9-3.6-1.3-5.1-1.4 2.8 2.5 4.5 6.2 4.7 10 .3 7.3-6.5 13.4-13.4 13.4 1.1.6 2.3 1.1 3.4 1.4 6.9 1.7 15.5-2.6 16.9-10 .2-2.5-.1-5.2-1.2-7.6"
        class="st3"></path>
    <path fill="#01010F"
        d="M48.303 63.6c-1.1 0-2.3-.2-3.4-.5-4.2-1.1-8.8-4.5-10-10-1.3-6.2 2.5-11.4 6.6-14.2.8-.5 7.6-4.7 14.5-.9 2.6 1.4 4.5 3.6 5.8 6.2s1.6 5.4 1.1 8.4l-.8-.2.8.2c-.6 3.6-2.9 6.6-6.2 8.7-2.7 1.5-5.6 2.3-8.4 2.3m1.6-25.5c-4 0-7.3 2.1-7.4 2.1-3.7 2.5-6.9 7.1-5.8 12.4.9 4.7 5 7.7 8.5 8.7 3.4.8 7.3.2 10.3-1.7 2.9-1.7 4.8-4.5 5.3-7.4.5-2.5.2-5-.9-7.3s-2.8-4-5-5.3c-1.6-1.1-3.5-1.5-5-1.5"
        class="st1"></path>
    <path fill="#F9E17A"
        d="M45.703 43.2s-2.9.6-4 3.9c-1.1 3.4 2.8 1.1 4.2-.2 1.7-1.5 5.1-4.3-.2-3.7" class="st4"></path>
    <path
        d="m92.903 41.5 5-.3c0 3.4 2.1 5.8 5.4 5.8 2.1 0 4.3-.9 4.3-3.1 0-5-13.4-3.2-13.4-11.6 0-4.3 3.7-7.3 8.5-7.3 4.5 0 8.7 2.5 9.1 6.9l-4.8.3c-.3-2.1-2.3-3.2-4.2-3.2s-3.7 1.1-3.7 2.8c0 4.8 13.4 3.6 13.4 11.6 0 4.3-4 7.6-9.6 7.6-5.5.1-10-3.8-10-9.5m22.3 0c0-5.6 3.7-9.6 9.1-9.6 4.7 0 8.2 2.9 8.7 7.3l-5 .5c-.5-2.3-1.7-3.6-3.7-3.6-2.5 0-3.9 2.1-3.9 5.4 0 3.2 1.4 5.3 3.9 5.3 2 0 3.2-1.3 3.7-3.4l5.1.3c-.5 4.2-3.9 7.1-8.7 7.1-5.5.3-9.2-3.6-9.2-9.3m21.5-8.8h4.8v3.7c.8-2.5 2.1-3.7 3.9-3.7h3.2v4h-2.9c-3.2 0-4.3 1.6-4.3 6.3v7.4h-4.8zm13.3 12.8c0-3.2 2.6-5.1 7.6-5.6 3.7-.5 4.3-.8 4.2-2.1 0-1.1-.9-1.7-2.8-1.7-2.3 0-3.9.9-3.9 2.6l-4.7-.3c0-3.7 3.4-6.2 8-6.2 4.8 0 8 2.6 8 6.8v11.6h-4.8v-2.9c-.9 2.3-3.1 3.6-5.8 3.6-3.5-.2-5.8-2.6-5.8-5.8m7.1 1.5c2.6 0 4.3-2.3 4.5-5.6-.8.8-2.3 1.4-4 1.7-2.1.3-3.1.9-3.1 2.1.1 1.2 1.2 1.8 2.6 1.8m33-10.8c-2.3 0-3.7 2.3-3.7 5.6v8.5h-4.8V40c0-2.6-.9-3.9-2.8-3.9-2.3 0-3.7 2.3-3.7 5.6v8.5h-4.8V32.6h4.8v2.9c1.1-2.3 3.1-3.6 5.4-3.6 2.6 0 4.3 1.4 5.1 4 1.1-2.5 3.4-4 6.2-4 3.7 0 5.6 2.8 5.6 7.7v10.8h-4.8V40.1c.3-2.6-.6-3.9-2.5-3.9m16.7 11v3.2h-4.8V25.5h4.8v10.3c1.1-2.5 3.2-3.9 6-3.9 4.5 0 7.7 3.9 7.7 9.3s-3.2 9.3-7.7 9.3c-2.9.6-4.9-.9-6-3.3m4.3-.2c2.6 0 4.3-2.1 4.3-5.4 0-3.2-1.7-5.4-4.3-5.4s-4.3 2.1-4.3 5.4c0 3.1 1.7 5.4 4.3 5.4m12.7-21.8h4.8v25.2h-4.8zm8.2 16.3c0-5.4 3.7-9.3 8.8-9.3s8.8 3.9 8.8 9.6v1.3h-12.6c0 2.5 1.7 4 4.3 4 1.7 0 3.1-.8 3.7-2.1l4.8.3c-.5 3.6-3.7 5.8-8.2 5.8-5.7 0-9.6-3.9-9.6-9.6m12.8-1.9c0-2.1-1.6-3.4-3.9-3.4s-4 1.4-4 3.4zm8.6-14.1h4.8v24.9h-4.8zm9.6 0h8.8c7.3 0 12.2 5.1 12.2 12.4s-5.1 12.4-12.2 12.4h-8.8zm9 20.9c4.3 0 7.4-3.4 7.4-8.4s-3.1-8.4-7.4-8.4h-4v16.7z"
        class="st0" fill="#FFF"></path>
    <path
        d="M92.903 65.8c0-3.6 2.3-6.1 5.5-6.1s5.5 2.5 5.5 6.1-2.3 6.1-5.5 6.1-5.5-2.5-5.5-6.1m5.5 4.6c2.3 0 3.9-1.9 3.9-4.7s-1.6-4.7-3.9-4.7-3.9 1.9-3.9 4.7 1.6 4.7 3.9 4.7m12.7-6c-1.4 0-2.3 1.2-2.3 3.1v4h-1.6v-8.3h1.6v1.4c.5-1 1.5-1.7 2.7-1.7 1.7 0 2.7 1.2 2.7 3.3v5.3h-1.6v-5.3c.1-1.1-.4-1.8-1.5-1.8m7-4.6h1.6v11.8h-1.6zm7.8 11.8-3.2-8.3h1.6l2.5 6.3 2.7-6.3h1.6l-5 11.7h-1.6zm15.6 0-3.2-8.3h1.6l2.5 6.3 2.7-6.3h1.6l-5 11.7h-1.6zm7.4-4.1c0-2.6 1.7-4.4 4.1-4.4s4.1 1.8 4.1 4.4-1.7 4.4-4.1 4.4-4.1-1.8-4.1-4.4m4.1 2.9c1.5 0 2.5-1.2 2.5-3s-1-3-2.5-3c-1.4 0-2.4 1.2-2.4 3-.1 1.9.9 3 2.4 3m7.1-1.8v-5.3h1.6v5.3c0 1.2.6 1.9 1.6 1.9 1.4 0 2.3-1.2 2.3-3.1v-4h1.6v8.3h-1.6v-1.5c-.5 1.1-1.5 1.8-2.7 1.8-1.8-.1-2.8-1.4-2.8-3.4m15.5-1.1c0-2.6 1.6-4.4 4-4.4 2.1 0 3.6 1.4 3.8 3.3l-1.7.2c-.2-1.2-1-2.1-2.2-2.1-1.4 0-2.4 1.2-2.4 3s.9 3 2.4 3c1.2 0 2-.8 2.2-2l1.7.2c-.2 1.9-1.7 3.2-3.8 3.2-2.3 0-4-1.8-4-4.4m10.9 1.8c0-1.5 1.3-2.5 3.6-2.7 1.5-.2 2-.5 1.9-1.1s-.7-1-1.7-1c-1.3 0-2.1.6-2.1 1.6l-1.5-.2c0-1.6 1.5-2.8 3.7-2.8 2.1 0 3.3 1.1 3.3 3.1v5.5h-1.6V70c-.4 1.2-1.5 1.9-2.8 1.9-1.7 0-2.8-1.1-2.8-2.6m3.1 1.1c1.4 0 2.4-1.2 2.4-3V67c-.3.4-1 .6-1.9.7-1.4.1-2.1.6-2.1 1.4.1.8.7 1.3 1.6 1.3m11.4-6c-1.4 0-2.3 1.2-2.3 3.1v4h-1.6v-8.3h1.6v1.4c.5-1 1.5-1.7 2.8-1.7 1.7 0 2.7 1.2 2.7 3.3v5.3h-1.6v-5.3c0-1.1-.6-1.8-1.6-1.8m13.7 5.5v1.7h-1.6V59.9h1.6v5c.4-1.2 1.5-1.9 2.8-1.9 2.1 0 3.6 1.8 3.6 4.4s-1.5 4.4-3.6 4.4c-1.3.1-2.4-.7-2.8-1.9m2.4.5c1.4 0 2.4-1.2 2.4-3s-1-3-2.4-3-2.4 1.2-2.4 3 1 3 2.4 3m6.8-3c0-2.6 1.6-4.4 3.9-4.4s3.9 1.8 3.9 4.5v.4h-6.2c0 1.5 1 2.5 2.4 2.5 1 0 1.8-.5 2.1-1.4l1.6.2c-.3 1.6-1.8 2.7-3.6 2.7-2.5 0-4.1-1.8-4.1-4.5m6.1-.8c0-1.3-.9-2.1-2.2-2.1s-2.3.9-2.3 2.1zm12.5 5-3.2-8.3h1.6l2.5 6.3 2.7-6.3h1.6l-5 11.7h-1.6zm7.4-4.1c0-2.6 1.7-4.4 4.1-4.4s4.1 1.8 4.1 4.4-1.7 4.4-4.1 4.4c-2.3 0-4.1-1.8-4.1-4.4m4.1 2.9c1.5 0 2.4-1.2 2.4-3s-1-3-2.4-3c-1.5 0-2.4 1.2-2.4 3 0 1.9 1 3 2.4 3m7.2-1.8v-5.3h1.6v5.3c0 1.2.6 1.9 1.6 1.9 1.4 0 2.3-1.2 2.3-3.1v-4h1.6v8.3h-1.6v-1.5c-.5 1.1-1.5 1.8-2.7 1.8-1.8-.1-2.8-1.4-2.8-3.4"
        class="st3" fill="#F9BA2D"></path>
</svg>