<svg xmlns="http://www.w3.org/2000/svg" width="349.726" height="94.623" viewBox="0 0 349.726 94.623">
  <g id="Group_14219" data-name="Group 14219" transform="translate(-1144.582 -69)">
    <g id="Group_14137" data-name="Group 14137" transform="translate(528.582 -397)">
      <g id="Group_14135" data-name="Group 14135" transform="translate(616 466)">
        <g id="Group_14092" data-name="Group 14092" transform="translate(0 0)">
          <g id="Group_14089" data-name="Group 14089" transform="translate(0 0)">
            <g id="Group_14033" data-name="Group 14033" transform="translate(0 0)">
              <g id="Group_14085" data-name="Group 14085" transform="translate(0 0)">
                <g id="Group_14088" data-name="Group 14088" transform="translate(0 0)">
                  <g id="Group_14022" data-name="Group 14022">
                    <g id="Group_14031" data-name="Group 14031">
                      <g id="Group_1186" data-name="Group 1186" transform="translate(0 0)">
                        <g id="Group_910" data-name="Group 910">
                          <path id="Path_1198" data-name="Path 1198" d="M95.765,50.914C91.528,72.714,70.5,97.562,42.344,94.34,18.908,91.658-.794,70.518.025,46.4.956,18.948,27.882,4.641,45.138,1.284c5.015-.976,24.8-4.825,39.254,8.272,16.175,14.657,12,38.149,11.373,41.358" transform="translate(0 0)" fill="#fff"/>
                          <path id="Path_1199" data-name="Path 1199" d="M189.738,170.685c-2.409,12.407-16.675,19.6-28.087,16.648-6.663-1.721-13.674-7.239-15.406-15.542-1.993-9.559,4.013-18.005,10.32-22.115.839-.547,11.683-7.348,22.484-1.474a21.46,21.46,0,0,1,10.689,22.484" transform="translate(-119.622 -119.597)" fill="#ffd000"/>
                        </g>
                      </g>
                    </g>
                  </g>
                </g>
              </g>
            </g>
          </g>
        </g>
      </g>
    </g>
    <g id="Group_14218" data-name="Group 14218" transform="translate(522.582 -397)">
      <g id="Group_14134" data-name="Group 14134" transform="translate(731.739 535.057)">
        <g id="Group_14087" data-name="Group 14087" transform="translate(0 0)">
          <path id="Path_1362" data-name="Path 1362" d="M7.03.247a6.062,6.062,0,0,0,6.232-6.4A6.021,6.021,0,0,0,7.049-12.54,6.088,6.088,0,0,0,.817-6.118,6.016,6.016,0,0,0,7.03.247Zm.019-1.729c-2.489,0-4.256-1.938-4.256-4.674,0-2.755,1.748-4.655,4.237-4.655s4.256,1.957,4.256,4.693S9.538-1.482,7.049-1.482ZM20.786-9.367a3.545,3.545,0,0,0-3.04,1.615c-.038-1.216-.665-1.482-1.178-1.482a.934.934,0,0,0-.684.209V-.817c0,.684.342.893.836.893h.209c.475,0,.836-.209.836-.893v-5.3a2.762,2.762,0,0,1,2.565-1.6c1.33,0,2.109.95,2.109,2.489V-.817c0,.684.342.893.836.893h.209c.475,0,.836-.209.836-.893V-5.453C24.32-7.714,23.2-9.367,20.786-9.367ZM28.12.076h.19c.494,0,.836-.209.836-.893V-11.438c0-1.311-.608-1.615-1.2-1.615a.977.977,0,0,0-.684.209V-.817C27.265-.133,27.626.076,28.12.076ZM34.827,3.7c.437,0,.855-.228,1.159-1.045L40.3-8.721c.038-.1-.475-.513-.988-.513-.494,0-.912.266-1.178,1.1l-2.185,6.27L33.478-8.17c-.3-.817-.665-1.064-1.2-1.064-.608,0-1.026.437-.988.551l3.268,7.638a.79.79,0,0,0,.8.532l-1.52,3.7C33.8,3.287,34.295,3.7,34.827,3.7Zm13.984,0c.437,0,.855-.228,1.159-1.045L54.283-8.721c.038-.1-.475-.513-.988-.513-.494,0-.912.266-1.178,1.1l-2.185,6.27L47.462-8.17c-.3-.817-.665-1.064-1.2-1.064-.608,0-1.026.437-.988.551l3.268,7.638a.79.79,0,0,0,.8.532l-1.52,3.7C47.785,3.287,48.279,3.7,48.811,3.7Zm6.935-8.284A4.6,4.6,0,0,0,60.534.247a4.6,4.6,0,0,0,4.788-4.788,4.615,4.615,0,0,0-4.769-4.826A4.6,4.6,0,0,0,55.746-4.579Zm7.828.038a3.066,3.066,0,0,1-3.04,3.249,3.1,3.1,0,0,1-3.059-3.287,3.07,3.07,0,0,1,3.059-3.249A3.066,3.066,0,0,1,63.574-4.541ZM75.24-9.234h-.209c-.475,0-.817.228-.817.912v5.3a2.745,2.745,0,0,1-2.508,1.615c-1.387,0-2.185-.931-2.185-2.508V-8.322c0-.7-.342-.912-.836-.912h-.209c-.475,0-.817.228-.817.912v4.636c0,2.28,1.1,3.914,3.515,3.914a3.55,3.55,0,0,0,3.04-1.6,2.611,2.611,0,0,0,.076.589,1.064,1.064,0,0,0,1.121.855.911.911,0,0,0,.665-.209V-8.322C76.076-9.025,75.734-9.234,75.24-9.234Zm7.125,4.655A4.621,4.621,0,0,0,87.115.247,4.511,4.511,0,0,0,90.079-.7a2.245,2.245,0,0,0,.95-1.558c0-.817-1.064-.95-1.121-.855A2.727,2.727,0,0,1,87.153-1.33a3.037,3.037,0,0,1-3-3.249,3.026,3.026,0,0,1,3-3.211A2.71,2.71,0,0,1,89.908-6c.057.1,1.121-.057,1.121-.836A2.273,2.273,0,0,0,90.1-8.417a4.569,4.569,0,0,0-2.983-.95A4.622,4.622,0,0,0,82.365-4.579ZM92.834-2.394c0,1.558,1.159,2.6,3.116,2.6a3.951,3.951,0,0,0,3.287-1.577,2.826,2.826,0,0,0,.076.627A1.019,1.019,0,0,0,100.4.095c.342,0,.684-.114.684-.209v-5.6c0-2.318-1.406-3.648-3.99-3.648A4.851,4.851,0,0,0,93.8-8.322a1.66,1.66,0,0,0-.627,1.14c0,.912,1.159.931,1.159.912a2.761,2.761,0,0,1,2.622-1.558,1.987,1.987,0,0,1,2.261,2.147v.19h-.247C94.848-5.415,92.834-4.5,92.834-2.394ZM99.218-3.61a2.56,2.56,0,0,1-2.812,2.47c-1.083,0-1.729-.513-1.729-1.33,0-1.235,1.368-1.729,4.028-1.824l.513-.019Zm9.633-5.757a3.545,3.545,0,0,0-3.04,1.615c-.038-1.216-.665-1.482-1.178-1.482a.934.934,0,0,0-.684.209V-.817c0,.684.342.893.836.893h.209c.475,0,.836-.209.836-.893v-5.3a2.762,2.762,0,0,1,2.565-1.6c1.33,0,2.109.95,2.109,2.489V-.817c0,.684.342.893.836.893h.209c.475,0,.836-.209.836-.893V-5.453C112.385-7.714,111.264-9.367,108.851-9.367Zm12.141,8A3.535,3.535,0,0,0,124.146.247c2.527,0,4.332-1.957,4.332-4.826,0-2.907-1.824-4.788-4.275-4.788a3.718,3.718,0,0,0-3.192,1.653v-3.724c0-1.311-.627-1.615-1.2-1.615a.934.934,0,0,0-.684.209V-.817c0,.684.342.893.836.893h.209c.475,0,.817-.209.817-.893Zm5.662-3.192c0,1.938-1.14,3.249-2.85,3.249a2.735,2.735,0,0,1-2.812-2.565V-5.909a2.917,2.917,0,0,1,2.85-1.9C125.476-7.809,126.654-6.46,126.654-4.56Zm3.686.038A4.543,4.543,0,0,0,135.166.247a5.407,5.407,0,0,0,2.888-.741,1.83,1.83,0,0,0,1.007-1.33c0-.8-.95-.969-.988-.931a3.005,3.005,0,0,1-2.869,1.52,2.969,2.969,0,0,1-3.078-2.489,2.094,2.094,0,0,1-.038-.342h6.745c.437,0,.57-.152.57-.551v-.152a4.256,4.256,0,0,0-4.389-4.6A4.631,4.631,0,0,0,130.34-4.522Zm7.239-.817h-5.472a2.914,2.914,0,0,1,2.888-2.6A2.51,2.51,0,0,1,137.579-5.339ZM148.3,3.7c.437,0,.855-.228,1.159-1.045l4.313-11.381c.038-.1-.475-.513-.988-.513-.494,0-.912.266-1.178,1.1l-2.185,6.27-2.47-6.308c-.3-.817-.665-1.064-1.2-1.064-.608,0-1.026.437-.988.551l3.268,7.638a.79.79,0,0,0,.8.532l-1.52,3.7C147.269,3.287,147.763,3.7,148.3,3.7Zm6.935-8.284A4.6,4.6,0,0,0,160.018.247a4.6,4.6,0,0,0,4.788-4.788,4.615,4.615,0,0,0-4.769-4.826A4.6,4.6,0,0,0,155.23-4.579Zm7.828.038a3.066,3.066,0,0,1-3.04,3.249,3.1,3.1,0,0,1-3.059-3.287,3.07,3.07,0,0,1,3.059-3.249A3.066,3.066,0,0,1,163.058-4.541Zm11.666-4.693h-.209c-.475,0-.817.228-.817.912v5.3a2.745,2.745,0,0,1-2.508,1.615c-1.387,0-2.185-.931-2.185-2.508V-8.322c0-.7-.342-.912-.836-.912h-.209c-.475,0-.817.228-.817.912v4.636c0,2.28,1.1,3.914,3.515,3.914a3.55,3.55,0,0,0,3.04-1.6,2.61,2.61,0,0,0,.076.589A1.064,1.064,0,0,0,174.9.076a.911.911,0,0,0,.665-.209V-8.322C175.56-9.025,175.218-9.234,174.724-9.234Z" transform="translate(0 18)" fill="#ffd000"/>
        </g>
      </g>
      <path id="Path_1361" data-name="Path 1361" d="M3.036-2.07C4.83-.552,8.05.644,12.65.644c7.82,0,12.19-3.45,12.19-9.384,0-5.612-4.692-7.82-10.074-9.016-3.68-.828-6.348-1.2-6.348-3.772,0-2.162,1.932-3.5,5.152-3.5a10.656,10.656,0,0,1,7.912,3.634,4.415,4.415,0,0,0,2.668-3.542A4.084,4.084,0,0,0,22.08-28.2c-1.7-1.242-4.554-2.208-8.556-2.208-7.176,0-11.592,3.634-11.592,9.154,0,6.118,4.876,7.866,9.614,8.924,3.5.782,6.486,1.334,6.486,4,0,2.3-1.886,3.588-5.428,3.588a12.127,12.127,0,0,1-8.832-4C3.542-8.97,1.2-7.268,1.2-5.382A4.264,4.264,0,0,0,3.036-2.07ZM29.394-14.858c0,9.108,6.21,15.5,15.226,15.5a14.541,14.541,0,0,0,8.97-2.668C55.522-3.5,56.442-5.29,56.442-6.578c0-2.99-3.956-3.68-4.048-3.4-1.15,2.76-3.91,4.462-7.36,4.462-4.968,0-8.648-3.818-8.648-9.384,0-5.612,3.588-9.338,8.556-9.338a8.132,8.132,0,0,1,7.268,4.048c.092.23,3.91-.46,3.91-3.45,0-1.242-.874-2.9-2.714-4.278a14.488,14.488,0,0,0-8.694-2.484C35.65-30.406,29.394-23.92,29.394-14.858ZM64.584.184h.92A2.741,2.741,0,0,0,68.494-2.9v-7.82H70.84l6.532,8.142C78.8-.644,79.856.184,81.834.184c2.9,0,4.186-2.162,3.91-2.484l-7.82-9.476a7.576,7.576,0,0,0,1.472-.276c4.14-1.15,6.3-4.14,6.3-8.418,0-6.072-3.956-9.292-11.684-9.292h-8.74c-2.208,0-3.542,1.38-3.542,3.772V-3.542C61.732-1.15,62.744.184,64.584.184ZM68.4-15.548v-8.924h5.014c3.68,0,5.52,1.518,5.52,4.462,0,2.76-1.748,4.462-5.382,4.462ZM92.644.322c1.426,0,2.852-.782,3.68-3.128l1.84-4.738h10.81L110.768-2.9c.92,2.438,2.438,3.22,3.91,3.22,2.024,0,3.91-1.564,3.68-2.116l-10.35-26.22c-.414-1.242-1.288-2.024-4.37-2.024s-4.048.782-4.462,2.024L89.056-1.748C88.872-1.15,90.712.322,92.644.322ZM99.452-12.65,103.5-23.46l4.048,10.81ZM123-2.9c0,2.024.782,3.082,2.622,3.082h1.1c1.932,0,2.668-1.058,2.668-3.082V-20.424L134.32-8.556c.552,1.15.736,2.116,3.4,2.116s2.944-.966,3.45-2.116l4.968-12.1V-2.9c0,2.024.782,3.082,2.668,3.082h1.012c1.932,0,2.714-1.058,2.714-3.082V-26.542a3.113,3.113,0,0,0-3.45-3.4h-1.794c-1.932,0-2.668.552-3.45,2.438l-6.072,14.03-6.026-14.03c-.782-1.794-1.426-2.438-3.542-2.438h-1.84a3.066,3.066,0,0,0-3.358,3.4ZM162.978,0h9.568C180.918,0,184.6-2.714,184.6-8.464c0-3.542-2.024-6.348-6.44-7.36,3.45-.966,5.29-2.99,5.29-6.3,0-4.968-3.634-7.636-10.35-7.636h-10.12c-2.208,0-3.542,1.38-3.542,3.772V-3.772C159.436-1.38,160.77,0,162.978,0Zm3.128-17.066V-24.84h5.52c3.266,0,4.922,1.242,4.922,3.772,0,2.484-1.794,4-4.922,4Zm0,12.144V-13.11h5.888c3.91,0,5.7,1.288,5.7,4,0,2.99-1.656,4.186-5.7,4.186ZM193.8,0H208.15c2.07,0,3.128-1.058,3.128-2.944v-.184c0-1.886-1.058-2.852-3.128-2.852H197.018V-26.864c0-2.07-.966-3.082-2.944-3.082h-.966c-1.84,0-2.852,1.012-2.852,3.082V-3.726C190.256-1.334,191.59,0,193.8,0Zm26.22,0h16.79c2.116,0,3.082-.92,3.082-2.806v-.23c0-1.748-.966-2.53-3.082-2.53h-13.57v-6.946h9.752c2.162,0,3.128-.828,3.128-2.622v-.138c0-1.7-.92-2.53-3.128-2.53h-9.752v-6.3h13.34c2.116,0,3.128-.874,3.128-2.714v-.23c0-1.794-1.012-2.714-3.128-2.714h-16.56c-2.208,0-3.542,1.38-3.542,3.772V-3.726C216.476-1.334,217.81,0,220.018,0Z" transform="translate(731.836 528)" fill="#fff"/>
    </g>
  </g>
</svg>
